<?xml version="1.0" encoding="utf-8"?>
<!-- Generator: Adobe Illustrator 14.0.0, SVG Export Plug-In . SVG Version: 6.00 Build 43363)  -->
<svg version="1.2" baseProfile="tiny" id="Layer_2" xmlns="http://www.w3.org/2000/svg" xmlns:xlink="http://www.w3.org/1999/xlink"
	 x="0px" y="0px" width="800px" height="1441px" viewBox="0 0 800 1441" xml:space="preserve">
	<path fill="#FF5FC5" stroke="#FF5FC5" d="M0-0.125v1441.25L248.597,1441L5,1276.436V986.437l74-108
		c5.333-8-0.009-13.324-0.009-13.324C22.275,807.573,9,755.104,9,755.104l-1.333-142L43,612.437c0.667-6-4.85-16.698-4.85-16.698
		c-3.132-44.163,31.954-27.873,31.954-27.873C-123.386-45.602,486.928,19.868,486.928,19.868C817.422,71.875,792,382.77,792,382.77
		l-85,261c-7,19,0,28,0,28l87,40v668h-45v-284h-5l-0.146,180.064L497.583,1441L800,1441.125V-0.125H0z"/>
	<path fill="#FF5FC5" stroke="#FF5FC5" d="M570.416,335.769l0.258-6l-1.674-16c-52-66-151-46-151-46l-232,77
		c0,0-43.172-181.312,125.868-251.76c0,0,5.132-6.24,1.132-8.24c0,0-186,66-127,283l34,110c0,0,9,13,13,0l-5.986-24l-20.567-79.163
		l66.149-20.255L310,489.769c0,0,23.438-3,61.719,10c0,0,73.281-25,134.281-62C506,437.769,575.416,396.769,570.416,335.769z"/>
</svg>
