<?xml version="1.0" encoding="utf-8"?>
<!-- Generator: Adobe Illustrator 14.0.0, SVG Export Plug-In . SVG Version: 6.00 Build 43363)  -->
<svg version="1.2" baseProfile="tiny" id="hitmap" xmlns="http://www.w3.org/2000/svg" xmlns:xlink="http://www.w3.org/1999/xlink"
	 x="0px" y="0px" width="800px" height="1441px" viewBox="0 0 800 1441" xml:space="preserve">
	<path fill="#FF5FC5" stroke="#FF5FC5" d="M186.5,344.603l-0.5,0.166c0,0-43.172-181.312,125.868-251.76c0,0,5.132-6.24,1.132-8.24
		c0,0-186,66-127,283l34,110c0,0,5.792,8.356,10.148,4.952L186.5,344.603z"/>
	<path fill="#FF5FC5" stroke="#FF5FC5" d="M570.674,329.769l-1.674-16c-52-66-151-46-151-46L269.123,317.18l42.386,172.454
		c5.725-0.402,27.562-0.952,60.209,10.135c0,0,73.281-25,134.281-62c0,0,69.416-41,64.416-102L570.674,329.769z"/>
<path fill="#FF5FC5" stroke="#FF5FC5" d="M114.855,301.023l-6.241,2.988c-2.751,54.848,2.896,124.729,33.179,195.757l8.296-7.181
	l-1.986-9.052C117.418,422.694,111.827,355.845,114.855,301.023z"/>
<path fill="#FF5FC5" stroke="#FF5FC5" d="M0-0.125v1441.25l164.602,127.192h84.649v-108.833L248.597,1441L5,1276.436V986.437l74-108
	c5.333-8-0.009-13.324-0.009-13.324C22.275,807.573,9,755.104,9,755.104l-1.333-142L43,612.437c0.667-6-4.85-16.698-4.85-16.698
	c-3.132-44.163,31.954-27.873,31.954-27.873C-123.386-45.602,486.928,19.868,486.928,19.868C817.422,71.875,792,382.77,792,382.77
	l-85,261c-7,19,0,28,0,28l87,40v668h-45v-284h-5l-0.146,180.064L497.583,1441v127.317H587l213-127.192V-0.125H0z"/>
</svg>
