<?xml version="1.0" encoding="utf-8"?>
<!-- Generator: Adobe Illustrator 14.0.0, SVG Export Plug-In . SVG Version: 6.00 Build 43363)  -->
<svg version="1.2" baseProfile="tiny" id="Layer_2" xmlns="http://www.w3.org/2000/svg" xmlns:xlink="http://www.w3.org/1999/xlink"
	 x="0px" y="0px" width="800px" height="1441px" viewBox="0 0 800 1441" xml:space="preserve">
	 <path fill="#FF5FC5" stroke="#FF5FC5" d="M248.597,1441L0,1441.125V-0.125h800v1441.25L497.583,1441l246.271-165.166L744,1095.77h5
	v284h45v-668l-87-40c0,0-7-9,0-28l85-261c0,0,25.422-310.895-305.072-362.902c0,0-610.313-65.469-416.823,547.998
	c0,0-35.086-16.29-31.954,27.873c0,0,5.516,10.698,4.85,16.698l-35.333,0.667l1.333,142c0,0,13.275,52.47,69.991,110.009
	c0,0,5.343,5.324,0.009,13.324l-74,108v289.999L248.597,1441z"/>
	<path fill="#FF5FC5" stroke="#FF5FC5" d="M186.5,344.603l-0.5,0.166c0,0-43.172-181.312,125.868-251.76c0,0,5.132-6.24,1.132-8.24
		c0,0-186,66-127,283l34,110c0,0,5.792,8.356,10.148,4.952L186.5,344.603z"/>
	<path fill="#FF5FC5" stroke="#FF5FC5" d="M570.674,329.769l-1.674-16c-52-66-151-46-151-46L269.123,317.18l42.386,172.454
		c5.725-0.402,27.562-0.952,60.209,10.135c0,0,73.281-25,134.281-62c0,0,69.416-41,64.416-102L570.674,329.769z"/>
</svg>
