<?xml version="1.0" encoding="utf-8"?>
<svg version="1.2" baseProfile="tiny" xmlns="http://www.w3.org/2000/svg" xmlns:xlink="http://www.w3.org/1999/xlink" x="0px"
	 y="0px" width="800px" height="2441px" viewBox="0 0 800 2441" xml:space="preserve">
	<g>
		<path fill="#FF5FC5" d="M110.241,303.362c-1.466,12.646-2.245,25.501-2.245,38.541c0,55.75,13.796,108.271,38.129,154.369
			l5.648-3.492c-23.714-45.079-37.154-96.405-37.154-150.877c0-13.907,0.878-27.609,2.576-41.056L110.241,303.362z"/>
		<path fill="#FF5FC5" d="M311.868,93.133c0,0,5.132-6.24,1.132-8.24c0,0-150.875,53.538-137.751,222.71l-0.006,0.003
			c0.53,12.719,1.771,25.538,3.811,38.417c7.253,45.807,23.595,87.907,46.868,124.79l6.617-1.926
			c-23.349-36.526-39.729-78.344-46.942-123.9c-2.175-13.736-3.452-27.407-3.878-40.954l-0.459,0.253
			C179.122,246.637,193.22,142.581,311.868,93.133z"/>
		<path fill="#FF5FC5" d="M413.723,708.278c0,0-11.337,26.041-26.004,26.707h-3.037c-14.667-0.667-26-26.707-26-26.707
			c-8-8.707-13.411,0-13.411,0l-6.589,12.707l30.667,58.667c0,0,4,12.667,15.333,12.667h3.037c11.333,0,15.334-12.667,15.334-12.667
			l30.672-58.667l-6.59-12.707C427.135,708.278,421.723,699.571,413.723,708.278z"/>
		<path fill="#FF5FC5" d="M0,0v1441.249l164.602,127.193h46.375c21.014,0,38.048-17.035,38.048-38.049h0.225v-70.785l-0.653-18.484
			L5,1276.56V986.562l74-108c5.333-8-0.009-13.324-0.009-13.324C22.275,807.698,9,755.229,9,755.229l-1.333-142L43,612.562
			c0.032-0.289,0.046-0.592,0.05-0.901c-5.919-5.47-9.629-13.295-9.629-21.99c0-16.535,13.404-29.938,29.938-29.938
			c1.452,0,2.877,0.109,4.274,0.309C-118.093-44.906,486.926,19.993,486.926,19.993C817.42,72,791.998,382.895,791.998,382.895
			l-85,261c-7,19,0,28,0,28l87,40v667.999h-45v-283.999h-5l-0.146,180.063l-246.27,165.166v89.811
			c0.291,20.763,17.205,37.508,38.041,37.508h51.375l213-127.193V0H0z"/>
	</g>
	<path fill="#FF5FC5" d="M311.508,450.65l6.836-1.795c-24.745-34.951-42.95-75.39-52.418-119.938
		c-0.591-2.781-1.135-5.561-1.651-8.339l-6.351,2.064c0.479,2.55,0.98,5.1,1.522,7.652
		C268.926,374.891,286.984,415.454,311.508,450.65z"/>
</svg>
