<?xml version="1.0" encoding="utf-8"?>
<svg version="1.2" baseProfile="tiny" id="hitmap" xmlns="http://www.w3.org/2000/svg" xmlns:xlink="http://www.w3.org/1999/xlink"
	 x="0px" y="0px" width="800px" height="2290px" viewBox="0 0 800 2290" xml:space="preserve">
<path fill="#202020" stroke="#E26BA8" stroke-width="3" d="M0,0v2290h149.514L39,2210.35v-150l76-38v-30l-76-81v-979
	c0-26.786,30.75-48,73-48v-4v-34l-72.333-51.563v-114l37.333-30v-22.667l63-48v-11l-104-61v-136l77-37c5-5,0-9.096,0-9.096
	l-36-22.904v-96l-10-14v-85l-31-18v-33l43-34h552h3.5c58.818,0,146.5,33.144,146.5,73.461v451.039l-42-0.115V140.119v-3
	c0-37.003-33.234-66.539-74.244-66.539H635l-38.333,50.539l40,30.461H690c0,0,19.666,2.205,20.666,14.539l0.334,57l-34,45.667v4.667
	l34.667,26l-49.334,34c0,0-4,2.667,0,5.333l48.667,24v144l-101,60v13.794l62,48v24.88l39,29.12l0.666,84L641,815.453v5.333l33,26
	v67.333l37,23.46v102l-115,88H346c0,0-33,19.111-88,18h-66l-12.5-0.35c-51.639,0-93.5,32.616-93.5,72.35v452.539l27,20.002
	l76,29.394h37v-25.512l-75-25.423v-83l-36-52v-92l68-71c0,0,5.333-5.124,0-12.457l-68-95.543v-30l0.838-7.793
	c0-35.07,48.583-63.438,110.162-63.438h367h53.5c30.286,0,64.5,26.99,64.5,60v43.539c0,0-19,53-50,92l-0.666,11L676,1390.35v108.206
	l35,76.794v67l-92,132l-48,24l-1,4l112,42l10.273,4.203c11.225,10.826,18.237,26.219,18.237,43.298c0,0-10.178,44.038-51.511,78.038
	l-7,5.25v21.777l59,28.434v185L605.463,2290h194.536V0H0z"/>
</svg>
